<svg width="501" height="501" viewBox="0 0 501 501" fill="none" xmlns="http://www.w3.org/2000/svg">
<mask id="mask0" mask-type="alpha" maskUnits="userSpaceOnUse" x="50" y="48" width="402" height="404">
<path fill-rule="evenodd" clip-rule="evenodd" d="M451 272.835H338.41C328.292 311.985 292.769 340.9 250.5 340.9C208.231 340.9 172.708 311.985 162.59 272.835H50.0001C61.3295 373.646 146.775 452 250.5 452C354.226 452 439.671 373.646 451 272.835ZM451 227.165H338.41C328.292 188.015 292.769 159.1 250.5 159.1C208.231 159.1 172.708 188.015 162.59 227.165H50.0001C61.3295 126.354 146.775 48 250.5 48C354.226 48 439.671 126.354 451 227.165Z" fill="#272727"/>
</mask>
<g mask="url(#mask0)">
<rect x="50" y="48" width="400.041" height="203.757" fill="#272727"/>
<rect x="50.0001" y="250" width="401" height="202" fill="#272727"/>
</g>
<ellipse cx="251.775" cy="250" rx="57.9006" ry="57.9652" fill="#272727"/>
</svg>
