<svg width="500" height="500" viewBox="0 0 500 500" fill="none" xmlns="http://www.w3.org/2000/svg">
<path fill-rule="evenodd" clip-rule="evenodd" d="M174 17.0162C75.8942 48.9975 5 141.22 5 250C5 358.78 75.8942 451.003 174 482.984L174 449.041L174 440V54.9999V50.9585V17.0162ZM203 42.2027V54.9999V298.267C203 307.474 203.926 316.659 205.764 325.681L206.514 329.362C208.314 338.201 211.219 346.779 215.161 354.893C224.317 373.745 238.78 389.512 256.773 400.258L259.641 401.97C267.389 406.598 275.775 410.061 284.53 412.25C291.836 414.076 299.338 415 306.87 415H315V383H306.87C301.955 383 297.059 382.397 292.291 381.205C286.577 379.777 281.105 377.517 276.049 374.497L273.181 372.784C260.539 365.235 250.378 354.157 243.945 340.912C241.176 335.211 239.135 329.185 237.87 322.974L237.12 319.293C235.71 312.373 235 305.329 235 298.267V37.52C239.955 37.1752 244.957 37 250 37C367.637 37 463 132.363 463 250C463 326.968 422.176 394.401 361 431.827V295.733C361 286.526 360.074 277.341 358.236 268.319L357.486 264.638C355.686 255.799 352.781 247.221 348.839 239.107C339.683 220.255 325.22 204.488 307.227 193.742L304.359 192.03C296.611 187.402 288.225 183.939 279.47 181.75C272.164 179.924 264.662 179 257.13 179H249V211H257.13C262.045 211 266.941 211.603 271.709 212.795C277.423 214.223 282.895 216.483 287.951 219.503L290.819 221.216C303.461 228.765 313.622 239.843 320.055 253.088C322.824 258.789 324.865 264.815 326.13 271.026L326.88 274.706C328.29 281.627 329 288.671 329 295.733V440V447.869V481.984C425.548 449.115 495 357.668 495 250C495 114.69 385.31 5 250 5C233.925 5 218.211 6.54819 203 9.50361V42.2027ZM142 433.629C79.1623 396.591 37 328.219 37 250C37 171.781 79.1623 103.409 142 66.3715L142 433.629ZM249 118H353V150H249V118Z" fill="#373737"/>
</svg>
